<svg width="24" height="25" viewBox="0 0 24 25" fill="none" xmlns="http://www.w3.org/2000/svg">
<path fill-rule="evenodd" clip-rule="evenodd" d="M6.73649 3C3.82903 3 1 5.552 1 9.01351C1 12.8318 3.80141 16.0735 6.38882 18.2763C7.70549 19.3973 9.01844 20.2929 10.0004 20.9077C10.4922 21.2157 10.9029 21.4544 11.1922 21.6169C11.4093 21.7388 11.5582 21.818 11.6223 21.8516C11.7407 21.9132 11.8652 21.9527 12 21.9527C12.1193 21.9527 12.2378 21.9238 12.3438 21.8693C12.5003 21.7886 12.6543 21.7031 12.8078 21.6169C13.0971 21.4544 13.5078 21.2157 13.9996 20.9077C14.9816 20.2929 16.2945 19.3973 17.6112 18.2763C20.1986 16.0735 23 12.8318 23 9.01351C23 5.552 20.171 3 17.2635 3C14.9702 3 13.1192 4.22621 12 6.10482C10.8808 4.22621 9.02981 3 6.73649 3ZM6.73649 4.5C4.65746 4.5 2.5 6.38043 2.5 9.01351C2.5 12.1209 4.8236 14.9738 7.36118 17.1342C8.60701 18.1948 9.85656 19.0479 10.7965 19.6364C11.2656 19.9301 11.6557 20.1567 11.9269 20.3091L12 20.35L12.0731 20.3091C12.3443 20.1567 12.7344 19.9301 13.2035 19.6364C14.1434 19.0479 15.393 18.1948 16.6388 17.1342C19.1764 14.9738 21.5 12.1209 21.5 9.01351C21.5 6.38043 19.3425 4.5 17.2635 4.5C15.1581 4.5 13.4627 5.88899 12.7115 8.14258C12.6094 8.44883 12.3228 8.65541 12 8.65541C11.6772 8.65541 11.3906 8.44883 11.2885 8.14258C10.5373 5.88899 8.84185 4.5 6.73649 4.5Z" fill="#1F2328"/>
</svg>
